# xmcd
#
# Track frame offsets: 
#        150
#        16125
#        33512
#        47370
#        55657
#        68740
#        74250
#        79512
#        94187
#        107904
#        120354
#        135772
#        149627
#        164115
#        166735
#        182147
#        195052
#        210427
#        220087
#        229652
#        245715
#        262247
#
# Disc length: 3701 seconds
#
# Revision: 6
# Processed by: cddbd v1.5.2PL0 Copyright (c) Steve Scherf et al.
# Submitted via: ExactAudioCopy v0.95b2
#
DISCID=2b0e7316
DTITLE=Waters Muddy - The Complete Plantation Recordings
DYEAR=1993
DGENRE=Blues
TTITLE0=Country Blues (1st version)
TTITLE1=Interview #1
TTITLE2=I Be's Troubled
TTITLE3=Interview #2
TTITLE4=Burr Clover Farm Blues
TTITLE5=Interview #3
TTITLE6=Ramblin' Kid Blues (partial)
TTITLE7=Ramblin' Kid Blues
TTITLE8=Rosalie
TTITLE9=Joe Turner
TTITLE10=Pearlie May Blues
TTITLE11=Take A Walk With Me
TTITLE12=Burr Clover Blues
TTITLE13=Interview #4
TTITLE14=I Be Bound To Write To You (1st version)
TTITLE15=I Be Bound To Write To You (2nd version)
TTITLE16=You're Gonna Miss Me When I'm Gone (1st version)
TTITLE17=You Got To Take Sick and Die Some of These Days
TTITLE18=Why Don't You Live So God Can Use You
TTITLE19=Country Blues (2nd version)
TTITLE20=You're Gonna Miss Me When I'm Gone (2nd version)
TTITLE21=32-20 Blues
EXTD=
EXTT0=
EXTT1=
EXTT2=
EXTT3=
EXTT4=
EXTT5=
EXTT6=
EXTT7=
EXTT8=
EXTT9=
EXTT10=
EXTT11=
EXTT12=
EXTT13=
EXTT14=
EXTT15=
EXTT16=
EXTT17=
EXTT18=
EXTT19=
EXTT20=
EXTT21=
PLAYORDER=
